<svg width="105" height="101" viewBox="0 0 105 101" fill="none" xmlns="http://www.w3.org/2000/svg">
<path d="M97.9841 47.205C100.721 48.7569 100.678 52.7157 97.9071 54.207L31.9773 89.6915C29.2953 91.135 26.0483 89.1708 26.0818 86.1252L26.8784 13.7145C26.9119 10.6689 30.2013 8.77665 32.8509 10.2788L97.9841 47.205Z" fill="white "/>
<line x1="40.4167" y1="39.6667" x2="40.4167" y2="59.6667" stroke="black" stroke-width="2"/>
<line x1="34.4167" y1="44.6667" x2="34.4167" y2="54.6667" stroke="black" stroke-width="2"/>
<line x1="46.4167" y1="36.6667" x2="46.4167" y2="62.6667" stroke="black" stroke-width="2"/>
<line x1="52.4167" y1="33.6667" x2="52.4167" y2="66.6667" stroke="black" stroke-width="2"/>
<line x1="57.4167" y1="39.6667" x2="57.4167" y2="59.6667" stroke="black" stroke-width="2"/>
<line x1="62.4167" y1="44.6667" x2="62.4167" y2="54.6667" stroke="black" stroke-width="2"/>
<line x1="67.4167" y1="47.6667" x2="67.4167" y2="52.6667" stroke="black" stroke-width="2"/>
<line x1="71.4167" y1="46.6667" x2="71.4167" y2="53.6667" stroke="black" stroke-width="2"/>
<line x1="75.4167" y1="43.6667" x2="75.4167" y2="55.6667" stroke="black" stroke-width="2"/>
<line x1="79.4167" y1="47.6667" x2="79.4167" y2="52.6667" stroke="black" stroke-width="2"/>
</svg>
