<svg width="204" height="82" viewBox="0 0 204 82" fill="none" xmlns="http://www.w3.org/2000/svg">
<path d="M200.984 38.205C203.721 39.7569 203.678 43.7157 200.907 45.207L134.977 80.6915C132.295 82.135 129.048 80.1708 129.082 77.1252L129.878 4.71448C129.912 1.66888 133.201 -0.22335 135.851 1.2788L200.984 38.205Z" fill="white"/>
<path d="M2.72266 13.3945V23.8047H13.4453V26.207H2.72266V39H0.203125V10.9922H15.9648V13.3945H2.72266ZM32.5273 33.5117C32.5273 34.319 32.3711 35.0807 32.0586 35.7969C31.7591 36.513 31.3424 37.138 30.8086 37.6719C30.2747 38.2057 29.6497 38.6289 28.9336 38.9414C28.2174 39.2409 27.4557 39.3906 26.6484 39.3906H25.0469C24.2396 39.3906 23.4779 39.2409 22.7617 38.9414C22.0456 38.6289 21.4206 38.2057 20.8867 37.6719C20.3529 37.138 19.9297 36.513 19.6172 35.7969C19.3177 35.0807 19.168 34.319 19.168 33.5117V24.4883C19.168 23.681 19.3177 22.9193 19.6172 22.2031C19.9297 21.487 20.3529 20.862 20.8867 20.3281C21.4206 19.7943 22.0456 19.3776 22.7617 19.0781C23.4779 18.7656 24.2396 18.6094 25.0469 18.6094H26.6484C27.4557 18.6094 28.2174 18.7656 28.9336 19.0781C29.6497 19.3776 30.2747 19.7943 30.8086 20.3281C31.3424 20.862 31.7591 21.487 32.0586 22.2031C32.3711 22.9193 32.5273 23.681 32.5273 24.4883V33.5117ZM30.125 24.3516C30.125 23.8698 30.0339 23.4206 29.8516 23.0039C29.6693 22.5742 29.4219 22.2031 29.1094 21.8906C28.7969 21.5781 28.4258 21.3307 27.9961 21.1484C27.5794 20.9661 27.1302 20.875 26.6484 20.875H25.0469C24.5651 20.875 24.1094 20.9661 23.6797 21.1484C23.263 21.3307 22.8984 21.5781 22.5859 21.8906C22.2734 22.2031 22.026 22.5742 21.8438 23.0039C21.6615 23.4206 21.5703 23.8698 21.5703 24.3516V33.6484C21.5703 34.1302 21.6615 34.5859 21.8438 35.0156C22.026 35.4323 22.2734 35.7969 22.5859 36.1094C22.8984 36.4219 23.263 36.6693 23.6797 36.8516C24.1094 37.0339 24.5651 37.125 25.0469 37.125H26.6484C27.1302 37.125 27.5794 37.0339 27.9961 36.8516C28.4258 36.6693 28.7969 36.4219 29.1094 36.1094C29.4219 35.7969 29.6693 35.4323 29.8516 35.0156C30.0339 34.5859 30.125 34.1302 30.125 33.6484V24.3516ZM43.2109 21.2852C42.7292 21.2852 42.2734 21.3763 41.8438 21.5586C41.4271 21.7409 41.0625 21.9883 40.75 22.3008C40.4375 22.6133 40.1901 22.9844 40.0078 23.4141C39.8255 23.8307 39.7344 24.2799 39.7344 24.7617V39H37.332V19H38.1328L39.4414 21.0312C39.9883 20.2891 40.6719 19.7031 41.4922 19.2734C42.3255 18.8307 43.2305 18.6094 44.207 18.6094H45.6133V21.2852H43.2109ZM61.2773 47.0078H58.9531L62.5078 37.2812L56.0234 19H58.4258L63.6406 34.1562L63.7188 35.1914L63.7969 34.1562L68.9922 19H71.3945L61.2773 47.0078ZM87.1758 33.5117C87.1758 34.319 87.0195 35.0807 86.707 35.7969C86.4076 36.513 85.9909 37.138 85.457 37.6719C84.9232 38.2057 84.2982 38.6289 83.582 38.9414C82.8659 39.2409 82.1042 39.3906 81.2969 39.3906H79.6953C78.888 39.3906 78.1263 39.2409 77.4102 38.9414C76.694 38.6289 76.069 38.2057 75.5352 37.6719C75.0013 37.138 74.5781 36.513 74.2656 35.7969C73.9661 35.0807 73.8164 34.319 73.8164 33.5117V24.4883C73.8164 23.681 73.9661 22.9193 74.2656 22.2031C74.5781 21.487 75.0013 20.862 75.5352 20.3281C76.069 19.7943 76.694 19.3776 77.4102 19.0781C78.1263 18.7656 78.888 18.6094 79.6953 18.6094H81.2969C82.1042 18.6094 82.8659 18.7656 83.582 19.0781C84.2982 19.3776 84.9232 19.7943 85.457 20.3281C85.9909 20.862 86.4076 21.487 86.707 22.2031C87.0195 22.9193 87.1758 23.681 87.1758 24.4883V33.5117ZM84.7734 24.3516C84.7734 23.8698 84.6823 23.4206 84.5 23.0039C84.3177 22.5742 84.0703 22.2031 83.7578 21.8906C83.4453 21.5781 83.0742 21.3307 82.6445 21.1484C82.2279 20.9661 81.7786 20.875 81.2969 20.875H79.6953C79.2135 20.875 78.7578 20.9661 78.3281 21.1484C77.9115 21.3307 77.5469 21.5781 77.2344 21.8906C76.9219 22.2031 76.6745 22.5742 76.4922 23.0039C76.3099 23.4206 76.2188 23.8698 76.2188 24.3516V33.6484C76.2188 34.1302 76.3099 34.5859 76.4922 35.0156C76.6745 35.4323 76.9219 35.7969 77.2344 36.1094C77.5469 36.4219 77.9115 36.6693 78.3281 36.8516C78.7578 37.0339 79.2135 37.125 79.6953 37.125H81.2969C81.7786 37.125 82.2279 37.0339 82.6445 36.8516C83.0742 36.6693 83.4453 36.4219 83.7578 36.1094C84.0703 35.7969 84.3177 35.4323 84.5 35.0156C84.6823 34.5859 84.7734 34.1302 84.7734 33.6484V24.3516ZM104.539 39L103.211 36.9688C102.664 37.7109 101.98 38.3034 101.16 38.7461C100.34 39.1758 99.4414 39.3906 98.4648 39.3906H97.8594C97.0521 39.3906 96.2904 39.2409 95.5742 38.9414C94.8581 38.6289 94.2331 38.2057 93.6992 37.6719C93.1654 37.138 92.7422 36.513 92.4297 35.7969C92.1302 35.0807 91.9805 34.319 91.9805 33.5117V19H94.3828V33.6484C94.3828 34.1302 94.474 34.5859 94.6562 35.0156C94.8385 35.4323 95.0859 35.7969 95.3984 36.1094C95.7109 36.4219 96.0755 36.6693 96.4922 36.8516C96.9219 37.0339 97.3776 37.125 97.8594 37.125H99.4609C99.9427 37.125 100.392 37.0339 100.809 36.8516C101.238 36.6693 101.609 36.4219 101.922 36.1094C102.234 35.7969 102.482 35.4323 102.664 35.0156C102.846 34.5859 102.938 34.1302 102.938 33.6484V19H105.34V39H104.539Z" fill="white"/>
<path d="M2.72266 13.3945V12.3945H1.72266V13.3945H2.72266ZM2.72266 23.8047H1.72266V24.8047H2.72266V23.8047ZM13.4453 23.8047H14.4453V22.8047H13.4453V23.8047ZM13.4453 26.207V27.207H14.4453V26.207H13.4453ZM2.72266 26.207V25.207H1.72266V26.207H2.72266ZM2.72266 39V40H3.72266V39H2.72266ZM0.203125 39H-0.796875V40H0.203125V39ZM0.203125 10.9922V9.99219H-0.796875V10.9922H0.203125ZM15.9648 10.9922H16.9648V9.99219H15.9648V10.9922ZM15.9648 13.3945V14.3945H16.9648V13.3945H15.9648ZM1.72266 13.3945V23.8047H3.72266V13.3945H1.72266ZM2.72266 24.8047H13.4453V22.8047H2.72266V24.8047ZM12.4453 23.8047V26.207H14.4453V23.8047H12.4453ZM13.4453 25.207H2.72266V27.207H13.4453V25.207ZM1.72266 26.207V39H3.72266V26.207H1.72266ZM2.72266 38H0.203125V40H2.72266V38ZM1.20312 39V10.9922H-0.796875V39H1.20312ZM0.203125 11.9922H15.9648V9.99219H0.203125V11.9922ZM14.9648 10.9922V13.3945H16.9648V10.9922H14.9648ZM15.9648 12.3945H2.72266V14.3945H15.9648V12.3945ZM32.0586 35.7969L31.1421 35.3969L31.139 35.404L31.136 35.4111L32.0586 35.7969ZM30.8086 37.6719L30.1015 36.9648L30.8086 37.6719ZM28.9336 38.9414L29.3194 39.864L29.3265 39.861L29.3335 39.8579L28.9336 38.9414ZM22.7617 38.9414L22.3618 39.8579L22.3688 39.861L22.3759 39.864L22.7617 38.9414ZM19.6172 35.7969L18.6946 36.1827L18.6976 36.1898L18.7006 36.1968L19.6172 35.7969ZM19.6172 22.2031L18.7006 21.8032L18.6976 21.8102L18.6946 21.8173L19.6172 22.2031ZM22.7617 19.0781L23.1475 20.0007L23.1546 19.9977L23.1617 19.9947L22.7617 19.0781ZM28.9336 19.0781L28.5336 19.9947L28.5407 19.9977L28.5478 20.0007L28.9336 19.0781ZM32.0586 22.2031L31.136 22.5889L31.139 22.596L31.1421 22.6031L32.0586 22.2031ZM29.8516 23.0039L28.9309 23.3945L28.9354 23.4047L29.8516 23.0039ZM27.9961 21.1484L27.5952 22.0647L27.6055 22.069L27.9961 21.1484ZM23.6797 21.1484L23.2891 20.2278L23.2789 20.2323L23.6797 21.1484ZM21.8438 23.0039L22.76 23.4048L22.7643 23.3945L21.8438 23.0039ZM21.8438 35.0156L20.9231 35.4062L20.9276 35.4164L21.8438 35.0156ZM23.6797 36.8516L23.2788 37.7678L23.2891 37.7721L23.6797 36.8516ZM27.9961 36.8516L27.6055 35.9309L27.5953 35.9354L27.9961 36.8516ZM29.8516 35.0156L30.7678 35.4165L30.7721 35.4062L29.8516 35.0156ZM31.5273 33.5117C31.5273 34.1861 31.3977 34.8112 31.1421 35.3969L32.9751 36.1968C33.3445 35.3503 33.5273 34.452 33.5273 33.5117H31.5273ZM31.136 35.4111C30.8853 36.0106 30.5407 36.5256 30.1015 36.9648L31.5157 38.379C32.1442 37.7505 32.6329 37.0155 32.9812 36.1827L31.136 35.4111ZM30.1015 36.9648C29.6591 37.4071 29.1393 37.7606 28.5336 38.0249L29.3335 39.8579C30.1602 39.4972 30.8904 39.0043 31.5157 38.379L30.1015 36.9648ZM28.5478 38.0188C27.9587 38.2652 27.3287 38.3906 26.6484 38.3906V40.3906C27.5828 40.3906 28.4762 40.2166 29.3194 39.864L28.5478 38.0188ZM26.6484 38.3906H25.0469V40.3906H26.6484V38.3906ZM25.0469 38.3906C24.3666 38.3906 23.7366 38.2652 23.1475 38.0188L22.3759 39.864C23.2192 40.2166 24.1125 40.3906 25.0469 40.3906V38.3906ZM23.1617 38.0249C22.556 37.7606 22.0362 37.4071 21.5938 36.9648L20.1796 38.379C20.805 39.0043 21.5351 39.4972 22.3618 39.8579L23.1617 38.0249ZM21.5938 36.9648C21.1515 36.5224 20.798 36.0026 20.5337 35.3969L18.7006 36.1968C19.0614 37.0235 19.5543 37.7536 20.1796 38.379L21.5938 36.9648ZM20.5398 35.4111C20.2934 34.822 20.168 34.192 20.168 33.5117H18.168C18.168 34.4461 18.342 35.3394 18.6946 36.1827L20.5398 35.4111ZM20.168 33.5117V24.4883H18.168V33.5117H20.168ZM20.168 24.4883C20.168 23.808 20.2934 23.178 20.5398 22.5889L18.6946 21.8173C18.342 22.6606 18.168 23.5539 18.168 24.4883H20.168ZM20.5337 22.6031C20.798 21.9974 21.1515 21.4776 21.5938 21.0352L20.1796 19.621C19.5543 20.2464 19.0614 20.9765 18.7006 21.8032L20.5337 22.6031ZM21.5938 21.0352C22.033 20.596 22.548 20.2514 23.1475 20.0007L22.3759 18.1555C21.5431 18.5038 20.8081 18.9925 20.1796 19.621L21.5938 21.0352ZM23.1617 19.9947C23.7474 19.7391 24.3725 19.6094 25.0469 19.6094V17.6094C24.1066 17.6094 23.2083 17.7922 22.3618 18.1616L23.1617 19.9947ZM25.0469 19.6094H26.6484V17.6094H25.0469V19.6094ZM26.6484 19.6094C27.3228 19.6094 27.9479 19.7391 28.5336 19.9947L29.3335 18.1616C28.487 17.7922 27.5887 17.6094 26.6484 17.6094V19.6094ZM28.5478 20.0007C29.1473 20.2514 29.6623 20.596 30.1015 21.0352L31.5157 19.621C30.8872 18.9925 30.1522 18.5038 29.3194 18.1555L28.5478 20.0007ZM30.1015 21.0352C30.5407 21.4744 30.8853 21.9894 31.136 22.5889L32.9812 21.8173C32.6329 20.9845 32.1442 20.2495 31.5157 19.621L30.1015 21.0352ZM31.1421 22.6031C31.3977 23.1888 31.5273 23.8139 31.5273 24.4883H33.5273C33.5273 23.548 33.3445 22.6497 32.9751 21.8032L31.1421 22.6031ZM31.5273 24.4883V33.5117H33.5273V24.4883H31.5273ZM31.125 24.3516C31.125 23.7402 31.0085 23.1536 30.7677 22.6031L28.9354 23.4047C29.0592 23.6876 29.125 23.9994 29.125 24.3516H31.125ZM30.7721 22.6134C30.5425 22.0722 30.2248 21.5919 29.8165 21.1835L28.4023 22.5977C28.6189 22.8144 28.796 23.0763 28.931 23.3945L30.7721 22.6134ZM29.8165 21.1835C29.4081 20.7752 28.9278 20.4575 28.3866 20.2279L27.6055 22.069C27.9237 22.204 28.1856 22.3811 28.4023 22.5977L29.8165 21.1835ZM28.3969 20.2323C27.8464 19.9915 27.2598 19.875 26.6484 19.875V21.875C27.0006 21.875 27.3124 21.9408 27.5953 22.0646L28.3969 20.2323ZM26.6484 19.875H25.0469V21.875H26.6484V19.875ZM25.0469 19.875C24.4353 19.875 23.8464 19.9915 23.2891 20.2279L24.0702 22.069C24.3724 21.9408 24.6949 21.875 25.0469 21.875V19.875ZM23.2789 20.2323C22.7514 20.4631 22.2821 20.7803 21.8788 21.1835L23.293 22.5977C23.5148 22.376 23.7747 22.1984 24.0805 22.0646L23.2789 20.2323ZM21.8788 21.1835C21.4705 21.5919 21.1528 22.0722 20.9232 22.6134L22.7643 23.3945C22.8993 23.0763 23.0764 22.8144 23.293 22.5977L21.8788 21.1835ZM20.9276 22.6031C20.6868 23.1536 20.5703 23.7402 20.5703 24.3516H22.5703C22.5703 23.9994 22.6362 23.6876 22.7599 23.4047L20.9276 22.6031ZM20.5703 24.3516V33.6484H22.5703V24.3516H20.5703ZM20.5703 33.6484C20.5703 34.26 20.6868 34.849 20.9232 35.4062L22.7643 34.6251C22.6361 34.3229 22.5703 34.0004 22.5703 33.6484H20.5703ZM20.9276 35.4164C21.1584 35.944 21.4756 36.4132 21.8788 36.8165L23.293 35.4023C23.0713 35.1805 22.8937 34.9206 22.7599 34.6148L20.9276 35.4164ZM21.8788 36.8165C22.2821 37.2197 22.7514 37.5369 23.2789 37.7677L24.0805 35.9354C23.7747 35.8016 23.5148 35.624 23.293 35.4023L21.8788 36.8165ZM23.2891 37.7721C23.8464 38.0085 24.4353 38.125 25.0469 38.125V36.125C24.6949 36.125 24.3724 36.0592 24.0702 35.931L23.2891 37.7721ZM25.0469 38.125H26.6484V36.125H25.0469V38.125ZM26.6484 38.125C27.2598 38.125 27.8464 38.0085 28.3969 37.7677L27.5953 35.9354C27.3124 36.0592 27.0006 36.125 26.6484 36.125V38.125ZM28.3866 37.7721C28.9278 37.5425 29.4081 37.2248 29.8165 36.8165L28.4023 35.4023C28.1856 35.6189 27.9237 35.796 27.6055 35.931L28.3866 37.7721ZM29.8165 36.8165C30.2197 36.4132 30.5369 35.944 30.7677 35.4164L28.9354 34.6148C28.8016 34.9206 28.624 35.1805 28.4023 35.4023L29.8165 36.8165ZM30.7721 35.4062C31.0085 34.849 31.125 34.26 31.125 33.6484H29.125C29.125 34.0004 29.0592 34.3229 28.931 34.6251L30.7721 35.4062ZM31.125 33.6484V24.3516H29.125V33.6484H31.125ZM41.8438 21.5586L41.4532 20.638L41.4429 20.6424L41.8438 21.5586ZM40.0078 23.4141L40.924 23.8149L40.9284 23.8046L40.0078 23.4141ZM39.7344 39V40H40.7344V39H39.7344ZM37.332 39H36.332V40H37.332V39ZM37.332 19V18H36.332V19H37.332ZM38.1328 19L38.9735 18.4584L38.6781 18H38.1328V19ZM39.4414 21.0312L38.6008 21.5728L39.3862 22.792L40.2465 21.6244L39.4414 21.0312ZM41.4922 19.2734L41.9562 20.1593L41.9613 20.1566L41.4922 19.2734ZM45.6133 18.6094H46.6133V17.6094H45.6133V18.6094ZM45.6133 21.2852V22.2852H46.6133V21.2852H45.6133ZM43.2109 20.2852C42.5994 20.2852 42.0104 20.4016 41.4532 20.638L42.2343 22.4792C42.5365 22.351 42.8589 22.2852 43.2109 22.2852V20.2852ZM41.4429 20.6424C40.9154 20.8732 40.4461 21.1904 40.0429 21.5937L41.4571 23.0079C41.6789 22.7861 41.9388 22.6085 42.2446 22.4748L41.4429 20.6424ZM40.0429 21.5937C39.6345 22.002 39.3168 22.4823 39.0872 23.0235L40.9284 23.8046C41.0634 23.4864 41.2405 23.2245 41.4571 23.0079L40.0429 21.5937ZM39.0917 23.0132C38.8508 23.5637 38.7344 24.1503 38.7344 24.7617H40.7344C40.7344 24.4096 40.8002 24.0977 40.924 23.8149L39.0917 23.0132ZM38.7344 24.7617V39H40.7344V24.7617H38.7344ZM39.7344 38H37.332V40H39.7344V38ZM38.332 39V19H36.332V39H38.332ZM37.332 20H38.1328V18H37.332V20ZM37.2922 19.5416L38.6008 21.5728L40.2821 20.4897L38.9735 18.4584L37.2922 19.5416ZM40.2465 21.6244C40.7029 21.005 41.2697 20.5189 41.9562 20.1593L41.0282 18.3876C40.0741 18.8874 39.2737 19.5731 38.6364 20.4381L40.2465 21.6244ZM41.9613 20.1566C42.6451 19.7933 43.3881 19.6094 44.207 19.6094V17.6094C43.0728 17.6094 42.006 17.8681 41.023 18.3903L41.9613 20.1566ZM44.207 19.6094H45.6133V17.6094H44.207V19.6094ZM44.6133 18.6094V21.2852H46.6133V18.6094H44.6133ZM45.6133 20.2852H43.2109V22.2852H45.6133V20.2852ZM61.2773 47.0078V48.0078H61.9794L62.2179 47.3476L61.2773 47.0078ZM58.9531 47.0078L58.0139 46.6646L57.523 48.0078H58.9531V47.0078ZM62.5078 37.2812L63.4471 37.6245L63.5707 37.2863L63.4503 36.947L62.5078 37.2812ZM56.0234 19V18H54.6077L55.081 19.3343L56.0234 19ZM58.4258 19L59.3714 18.6746L59.1392 18H58.4258V19ZM63.6406 34.1562L64.6378 34.081L64.6281 33.9526L64.5862 33.8309L63.6406 34.1562ZM63.7188 35.1914L62.7216 35.2667H64.7159L63.7188 35.1914ZM63.7969 34.1562L62.8509 33.832L62.8094 33.9532L62.7997 34.081L63.7969 34.1562ZM68.9922 19V18H68.2779L68.0462 18.6757L68.9922 19ZM71.3945 19L72.3351 19.3397L72.819 18H71.3945V19ZM61.2773 46.0078H58.9531V48.0078H61.2773V46.0078ZM59.8924 47.3511L63.4471 37.6245L61.5686 36.938L58.0139 46.6646L59.8924 47.3511ZM63.4503 36.947L56.9659 18.6657L55.081 19.3343L61.5653 37.6155L63.4503 36.947ZM56.0234 20H58.4258V18H56.0234V20ZM57.4802 19.3254L62.695 34.4816L64.5862 33.8309L59.3714 18.6746L57.4802 19.3254ZM62.6435 34.2315L62.7216 35.2667L64.7159 35.1161L64.6378 34.081L62.6435 34.2315ZM64.7159 35.2667L64.794 34.2315L62.7997 34.081L62.7216 35.1161L64.7159 35.2667ZM64.7428 34.4805L69.9382 19.3243L68.0462 18.6757L62.8509 33.832L64.7428 34.4805ZM68.9922 20H71.3945V18H68.9922V20ZM70.454 18.6603L60.3368 46.6681L62.2179 47.3476L72.3351 19.3397L70.454 18.6603ZM86.707 35.7969L85.7905 35.3969L85.7874 35.404L85.7845 35.4111L86.707 35.7969ZM85.457 37.6719L84.7499 36.9648L85.457 37.6719ZM83.582 38.9414L83.9678 39.864L83.9749 39.861L83.982 39.8579L83.582 38.9414ZM77.4102 38.9414L77.0102 39.8579L77.0173 39.861L77.0244 39.864L77.4102 38.9414ZM74.2656 35.7969L73.343 36.1827L73.346 36.1898L73.3491 36.1968L74.2656 35.7969ZM74.2656 22.2031L73.3491 21.8032L73.346 21.8102L73.343 21.8173L74.2656 22.2031ZM77.4102 19.0781L77.796 20.0007L77.8031 19.9977L77.8101 19.9947L77.4102 19.0781ZM83.582 19.0781L83.1821 19.9947L83.1891 19.9977L83.1962 20.0007L83.582 19.0781ZM86.707 22.2031L85.7845 22.5889L85.7874 22.596L85.7905 22.6031L86.707 22.2031ZM84.5 23.0039L83.5794 23.3945L83.5838 23.4047L84.5 23.0039ZM82.6445 21.1484L82.2437 22.0647L82.254 22.069L82.6445 21.1484ZM78.3281 21.1484L77.9376 20.2278L77.9273 20.2323L78.3281 21.1484ZM76.4922 23.0039L77.4084 23.4048L77.4128 23.3945L76.4922 23.0039ZM76.4922 35.0156L75.5715 35.4062L75.576 35.4164L76.4922 35.0156ZM78.3281 36.8516L77.9273 37.7678L77.9376 37.7721L78.3281 36.8516ZM82.6445 36.8516L82.254 35.9309L82.2437 35.9354L82.6445 36.8516ZM84.5 35.0156L85.4162 35.4165L85.4206 35.4062L84.5 35.0156ZM86.1758 33.5117C86.1758 34.1861 86.0461 34.8112 85.7905 35.3969L87.6236 36.1968C87.993 35.3503 88.1758 34.452 88.1758 33.5117H86.1758ZM85.7845 35.4111C85.5338 36.0106 85.1891 36.5256 84.7499 36.9648L86.1641 38.379C86.7927 37.7505 87.2814 37.0155 87.6296 36.1827L85.7845 35.4111ZM84.7499 36.9648C84.3076 37.4071 83.7877 37.7606 83.1821 38.0249L83.982 39.8579C84.8086 39.4972 85.5388 39.0043 86.1641 38.379L84.7499 36.9648ZM83.1962 38.0188C82.6072 38.2652 81.9771 38.3906 81.2969 38.3906V40.3906C82.2312 40.3906 83.1246 40.2166 83.9678 39.864L83.1962 38.0188ZM81.2969 38.3906H79.6953V40.3906H81.2969V38.3906ZM79.6953 38.3906C79.0151 38.3906 78.385 38.2652 77.796 38.0188L77.0244 39.864C77.8676 40.2166 78.761 40.3906 79.6953 40.3906V38.3906ZM77.8101 38.0249C77.2045 37.7606 76.6846 37.4071 76.2423 36.9648L74.828 38.379C75.4534 39.0043 76.1836 39.4972 77.0102 39.8579L77.8101 38.0249ZM76.2423 36.9648C75.7999 36.5224 75.4464 36.0026 75.1822 35.3969L73.3491 36.1968C73.7098 37.0235 74.2027 37.7536 74.828 38.379L76.2423 36.9648ZM75.1882 35.4111C74.9419 34.822 74.8164 34.192 74.8164 33.5117H72.8164C72.8164 34.4461 72.9904 35.3394 73.343 36.1827L75.1882 35.4111ZM74.8164 33.5117V24.4883H72.8164V33.5117H74.8164ZM74.8164 24.4883C74.8164 23.808 74.9419 23.178 75.1882 22.5889L73.343 21.8173C72.9904 22.6606 72.8164 23.5539 72.8164 24.4883H74.8164ZM75.1822 22.6031C75.4464 21.9974 75.7999 21.4776 76.2423 21.0352L74.828 19.621C74.2027 20.2464 73.7098 20.9765 73.3491 21.8032L75.1822 22.6031ZM76.2423 21.0352C76.6815 20.596 77.1965 20.2514 77.796 20.0007L77.0244 18.1555C76.1916 18.5038 75.4566 18.9925 74.828 19.621L76.2423 21.0352ZM77.8101 19.9947C78.3959 19.7391 79.021 19.6094 79.6953 19.6094V17.6094C78.7551 17.6094 77.8567 17.7922 77.0102 18.1616L77.8101 19.9947ZM79.6953 19.6094H81.2969V17.6094H79.6953V19.6094ZM81.2969 19.6094C81.9712 19.6094 82.5963 19.7391 83.1821 19.9947L83.982 18.1616C83.1355 17.7922 82.2371 17.6094 81.2969 17.6094V19.6094ZM83.1962 20.0007C83.7957 20.2514 84.3107 20.596 84.7499 21.0352L86.1641 19.621C85.5356 18.9925 84.8006 18.5038 83.9678 18.1555L83.1962 20.0007ZM84.7499 21.0352C85.1891 21.4744 85.5338 21.9894 85.7845 22.5889L87.6296 21.8173C87.2814 20.9845 86.7927 20.2495 86.1641 19.621L84.7499 21.0352ZM85.7905 22.6031C86.0461 23.1888 86.1758 23.8139 86.1758 24.4883H88.1758C88.1758 23.548 87.993 22.6497 87.6236 21.8032L85.7905 22.6031ZM86.1758 24.4883V33.5117H88.1758V24.4883H86.1758ZM85.7734 24.3516C85.7734 23.7402 85.657 23.1536 85.4162 22.6031L83.5838 23.4047C83.7076 23.6876 83.7734 23.9994 83.7734 24.3516H85.7734ZM85.4206 22.6134C85.191 22.0722 84.8733 21.5919 84.4649 21.1835L83.0507 22.5977C83.2673 22.8144 83.4444 23.0763 83.5794 23.3945L85.4206 22.6134ZM84.4649 21.1835C84.0566 20.7752 83.5763 20.4575 83.0351 20.2279L82.254 22.069C82.5722 22.204 82.8341 22.3811 83.0507 22.5977L84.4649 21.1835ZM83.0454 20.2323C82.4949 19.9915 81.9083 19.875 81.2969 19.875V21.875C81.649 21.875 81.9608 21.9408 82.2437 22.0646L83.0454 20.2323ZM81.2969 19.875H79.6953V21.875H81.2969V19.875ZM79.6953 19.875C79.0838 19.875 78.4948 19.9915 77.9376 20.2279L78.7187 22.069C79.0208 21.9408 79.3433 21.875 79.6953 21.875V19.875ZM77.9273 20.2323C77.3998 20.4631 76.9305 20.7803 76.5273 21.1835L77.9415 22.5977C78.1632 22.376 78.4231 22.1984 78.7289 22.0646L77.9273 20.2323ZM76.5273 21.1835C76.1189 21.5919 75.8012 22.0722 75.5716 22.6134L77.4128 23.3945C77.5477 23.0763 77.7248 22.8144 77.9415 22.5977L76.5273 21.1835ZM75.576 22.6031C75.3352 23.1536 75.2188 23.7402 75.2188 24.3516H77.2188C77.2188 23.9994 77.2846 23.6876 77.4083 23.4047L75.576 22.6031ZM75.2188 24.3516V33.6484H77.2188V24.3516H75.2188ZM75.2188 33.6484C75.2188 34.26 75.3352 34.849 75.5716 35.4062L77.4128 34.6251C77.2846 34.3229 77.2188 34.0004 77.2188 33.6484H75.2188ZM75.576 35.4164C75.8068 35.944 76.124 36.4132 76.5273 36.8165L77.9415 35.4023C77.7197 35.1805 77.5421 34.9206 77.4083 34.6148L75.576 35.4164ZM76.5273 36.8165C76.9305 37.2197 77.3998 37.5369 77.9273 37.7677L78.7289 35.9354C78.4231 35.8016 78.1632 35.624 77.9415 35.4023L76.5273 36.8165ZM77.9376 37.7721C78.4948 38.0085 79.0838 38.125 79.6953 38.125V36.125C79.3433 36.125 79.0208 36.0592 78.7187 35.931L77.9376 37.7721ZM79.6953 38.125H81.2969V36.125H79.6953V38.125ZM81.2969 38.125C81.9083 38.125 82.4949 38.0085 83.0454 37.7677L82.2437 35.9354C81.9608 36.0592 81.649 36.125 81.2969 36.125V38.125ZM83.0351 37.7721C83.5763 37.5425 84.0566 37.2248 84.4649 36.8165L83.0507 35.4023C82.8341 35.6189 82.5722 35.796 82.254 35.931L83.0351 37.7721ZM84.4649 36.8165C84.8682 36.4132 85.1854 35.944 85.4162 35.4164L83.5838 34.6148C83.45 34.9206 83.2725 35.1805 83.0507 35.4023L84.4649 36.8165ZM85.4206 35.4062C85.657 34.849 85.7734 34.26 85.7734 33.6484H83.7734C83.7734 34.0004 83.7076 34.3229 83.5794 34.6251L85.4206 35.4062ZM85.7734 33.6484V24.3516H83.7734V33.6484H85.7734ZM104.539 39L103.702 39.5472L103.998 40H104.539V39ZM103.211 36.9688L104.048 36.4215L103.26 35.2164L102.406 36.3756L103.211 36.9688ZM101.16 38.7461L101.624 39.632L101.635 39.6261L101.16 38.7461ZM95.5742 38.9414L95.1743 39.8579L95.1813 39.861L95.1884 39.864L95.5742 38.9414ZM92.4297 35.7969L91.5071 36.1827L91.5101 36.1898L91.5131 36.1968L92.4297 35.7969ZM91.9805 19V18H90.9805V19H91.9805ZM94.3828 19H95.3828V18H94.3828V19ZM94.6562 35.0156L93.7356 35.4062L93.7401 35.4164L94.6562 35.0156ZM96.4922 36.8516L96.0913 37.7678L96.1016 37.7721L96.4922 36.8516ZM100.809 36.8516L100.418 35.9309L100.408 35.9354L100.809 36.8516ZM102.664 35.0156L103.58 35.4165L103.585 35.4062L102.664 35.0156ZM102.938 19V18H101.938V19H102.938ZM105.34 19H106.34V18H105.34V19ZM105.34 39V40H106.34V39H105.34ZM105.376 38.4528L104.048 36.4215L102.374 37.516L103.702 39.5472L105.376 38.4528ZM102.406 36.3756C101.948 36.9976 101.377 37.4926 100.685 37.8661L101.635 39.6261C102.584 39.1141 103.381 38.4243 104.016 37.5619L102.406 36.3756ZM100.696 37.8603C100.027 38.2108 99.2889 38.3906 98.4648 38.3906V40.3906C99.5939 40.3906 100.653 40.1407 101.624 39.6319L100.696 37.8603ZM98.4648 38.3906H97.8594V40.3906H98.4648V38.3906ZM97.8594 38.3906C97.1791 38.3906 96.5491 38.2652 95.96 38.0188L95.1884 39.864C96.0317 40.2166 96.925 40.3906 97.8594 40.3906V38.3906ZM95.9742 38.0249C95.3685 37.7606 94.8487 37.4071 94.4063 36.9648L92.9921 38.379C93.6175 39.0043 94.3476 39.4972 95.1743 39.8579L95.9742 38.0249ZM94.4063 36.9648C93.964 36.5224 93.6105 36.0026 93.3462 35.3969L91.5131 36.1968C91.8739 37.0235 92.3668 37.7536 92.9921 38.379L94.4063 36.9648ZM93.3523 35.4111C93.1059 34.822 92.9805 34.192 92.9805 33.5117H90.9805C90.9805 34.4461 91.1545 35.3394 91.5071 36.1827L93.3523 35.4111ZM92.9805 33.5117V19H90.9805V33.5117H92.9805ZM91.9805 20H94.3828V18H91.9805V20ZM93.3828 19V33.6484H95.3828V19H93.3828ZM93.3828 33.6484C93.3828 34.26 93.4993 34.849 93.7357 35.4062L95.5768 34.6251C95.4486 34.3229 95.3828 34.0004 95.3828 33.6484H93.3828ZM93.7401 35.4164C93.9709 35.944 94.2881 36.4132 94.6913 36.8165L96.1055 35.4023C95.8838 35.1805 95.7062 34.9206 95.5724 34.6148L93.7401 35.4164ZM94.6913 36.8165C95.0946 37.2197 95.5639 37.5369 96.0914 37.7677L96.893 35.9354C96.5872 35.8016 96.3273 35.624 96.1055 35.4023L94.6913 36.8165ZM96.1016 37.7721C96.6589 38.0085 97.2478 38.125 97.8594 38.125V36.125C97.5074 36.125 97.1849 36.0592 96.8827 35.931L96.1016 37.7721ZM97.8594 38.125H99.4609V36.125H97.8594V38.125ZM99.4609 38.125C100.072 38.125 100.659 38.0085 101.209 37.7677L100.408 35.9354C100.125 36.0592 99.8131 36.125 99.4609 36.125V38.125ZM101.199 37.7721C101.74 37.5425 102.221 37.2248 102.629 36.8165L101.215 35.4023C100.998 35.6189 100.736 35.796 100.418 35.931L101.199 37.7721ZM102.629 36.8165C103.032 36.4132 103.349 35.944 103.58 35.4164L101.748 34.6148C101.614 34.9206 101.437 35.1805 101.215 35.4023L102.629 36.8165ZM103.585 35.4062C103.821 34.849 103.938 34.26 103.938 33.6484H101.938C101.938 34.0004 101.872 34.3229 101.743 34.6251L103.585 35.4062ZM103.938 33.6484V19H101.938V33.6484H103.938ZM102.938 20H105.34V18H102.938V20ZM104.34 19V39H106.34V19H104.34ZM105.34 38H104.539V40H105.34V38Z" fill="White"/>
<path d="M84.4062 66V60.1406C84.4062 59.9479 84.3698 59.7682 84.2969 59.6016C84.224 59.4297 84.125 59.2812 84 59.1562C83.875 59.0312 83.7266 58.9323 83.5547 58.8594C83.388 58.7865 83.2083 58.75 83.0156 58.75H82.5391C82.3464 58.75 82.1641 58.7865 81.9922 58.8594C81.8255 58.9323 81.6771 59.0312 81.5469 59.1562C81.4219 59.2812 81.3229 59.4297 81.25 59.6016C81.1771 59.7682 81.1406 59.9479 81.1406 60.1406V66H80.1875V60.1406C80.1875 59.9479 80.151 59.7682 80.0781 59.6016C80.0052 59.4297 79.9036 59.2812 79.7734 59.1562C79.6484 59.0312 79.5 58.9323 79.3281 58.8594C79.1615 58.7865 78.9818 58.75 78.7891 58.75H78.3125C78.1198 58.75 77.9375 58.7865 77.7656 58.8594C77.599 58.9323 77.4531 59.0312 77.3281 59.1562C77.2031 59.2812 77.1042 59.4297 77.0312 59.6016C76.9583 59.7682 76.9219 59.9479 76.9219 60.1406V66H75.9609V58H76.2812L76.8047 58.8125C77.0234 58.5156 77.2969 58.2812 77.625 58.1094C77.9583 57.9323 78.3203 57.8438 78.7109 57.8438H78.7891C79.2422 57.8438 79.651 57.9557 80.0156 58.1797C80.3802 58.4036 80.6615 58.7005 80.8594 59.0703C80.9583 58.888 81.0807 58.7214 81.2266 58.5703C81.3724 58.4193 81.5339 58.2917 81.7109 58.1875C81.888 58.0781 82.0807 57.9948 82.2891 57.9375C82.4974 57.875 82.7135 57.8438 82.9375 57.8438H83.0156C83.3385 57.8438 83.6432 57.9062 83.9297 58.0312C84.2161 58.151 84.4661 58.3177 84.6797 58.5312C84.8932 58.7448 85.0599 58.9948 85.1797 59.2812C85.3047 59.5677 85.3672 59.8724 85.3672 60.1953V66H84.4062ZM92.3125 66L91.7812 65.1875C91.5625 65.4844 91.2891 65.7214 90.9609 65.8984C90.6328 66.0703 90.2734 66.1562 89.8828 66.1562H89.6406C89.3177 66.1562 89.013 66.0964 88.7266 65.9766C88.4401 65.8516 88.1901 65.6823 87.9766 65.4688C87.763 65.2552 87.5938 65.0052 87.4688 64.7188C87.349 64.4323 87.2891 64.1276 87.2891 63.8047V58H88.25V63.8594C88.25 64.0521 88.2865 64.2344 88.3594 64.4062C88.4323 64.5729 88.5312 64.7188 88.6562 64.8438C88.7812 64.9688 88.9271 65.0677 89.0938 65.1406C89.2656 65.2135 89.4479 65.25 89.6406 65.25H90.2812C90.474 65.25 90.6536 65.2135 90.8203 65.1406C90.9922 65.0677 91.1406 64.9688 91.2656 64.8438C91.3906 64.7188 91.4896 64.5729 91.5625 64.4062C91.6354 64.2344 91.6719 64.0521 91.6719 63.8594V58H92.6328V66H92.3125ZM100.055 63.9688C100.055 64.2917 99.9896 64.5885 99.8594 64.8594C99.7292 65.125 99.5521 65.3542 99.3281 65.5469C99.1042 65.7396 98.8438 65.8906 98.5469 66C98.2552 66.1042 97.9479 66.1562 97.625 66.1562H96.9844C96.6615 66.1562 96.3516 66.0964 96.0547 65.9766C95.763 65.8516 95.5052 65.6823 95.2812 65.4688C95.0625 65.2552 94.8854 65.0052 94.75 64.7188C94.6198 64.4323 94.5547 64.1276 94.5547 63.8047V63.4844L95.5156 63.3281V63.8594C95.5156 64.0521 95.5547 64.2344 95.6328 64.4062C95.7161 64.5729 95.8255 64.7188 95.9609 64.8438C96.0964 64.9688 96.2526 65.0677 96.4297 65.1406C96.6068 65.2135 96.7917 65.25 96.9844 65.25H97.625C97.8177 65.25 98.0026 65.2214 98.1797 65.1641C98.3568 65.1068 98.513 65.026 98.6484 64.9219C98.7891 64.8125 98.8984 64.6823 98.9766 64.5312C99.0599 64.3802 99.1016 64.2083 99.1016 64.0156C99.1016 63.7292 99.0391 63.4948 98.9141 63.3125C98.7891 63.1302 98.6224 62.9792 98.4141 62.8594C98.2109 62.7344 97.9766 62.6328 97.7109 62.5547C97.4505 62.4714 97.1823 62.3906 96.9062 62.3125C96.6302 62.2292 96.3594 62.1354 96.0938 62.0312C95.8333 61.9271 95.599 61.7917 95.3906 61.625C95.1875 61.4531 95.0234 61.2396 94.8984 60.9844C94.7734 60.7292 94.7109 60.4115 94.7109 60.0312C94.7109 59.7083 94.7734 59.4141 94.8984 59.1484C95.0234 58.8776 95.1927 58.6458 95.4062 58.4531C95.6198 58.2604 95.8672 58.112 96.1484 58.0078C96.4349 57.8984 96.7396 57.8438 97.0625 57.8438H97.625C97.9479 57.8438 98.2526 57.9062 98.5391 58.0312C98.8255 58.151 99.0755 58.3177 99.2891 58.5312C99.5026 58.7448 99.6693 58.9948 99.7891 59.2812C99.9141 59.5677 99.9766 59.8724 99.9766 60.1953V60.2266L99.0156 60.3828V60.1406C99.0156 59.9479 98.9792 59.7682 98.9062 59.6016C98.8333 59.4297 98.7344 59.2812 98.6094 59.1562C98.4844 59.0312 98.3359 58.9323 98.1641 58.8594C97.9974 58.7865 97.8177 58.75 97.625 58.75H97.0625C96.8698 58.75 96.6875 58.7786 96.5156 58.8359C96.349 58.8932 96.2031 58.9766 96.0781 59.0859C95.9531 59.1901 95.8542 59.3177 95.7812 59.4688C95.7083 59.6198 95.6719 59.7917 95.6719 59.9844C95.6719 60.2604 95.7344 60.487 95.8594 60.6641C95.9844 60.8359 96.1484 60.9818 96.3516 61.1016C96.5599 61.2214 96.7943 61.3229 97.0547 61.4062C97.3203 61.4844 97.5885 61.5677 97.8594 61.6562C98.1354 61.7396 98.4036 61.8359 98.6641 61.9453C98.9297 62.0547 99.1641 62.1953 99.3672 62.3672C99.5755 62.5391 99.7422 62.7552 99.8672 63.0156C99.9922 63.2708 100.055 63.5885 100.055 63.9688ZM102.141 56.0781V54.7969H103.258V56.0781H102.141ZM102.219 66V58H103.18V66H102.219ZM110.773 63.8047C110.773 64.1276 110.711 64.4323 110.586 64.7188C110.466 65.0052 110.299 65.2552 110.086 65.4688C109.872 65.6823 109.622 65.8516 109.336 65.9766C109.049 66.0964 108.745 66.1562 108.422 66.1562H107.781C107.458 66.1562 107.154 66.0964 106.867 65.9766C106.581 65.8516 106.331 65.6823 106.117 65.4688C105.904 65.2552 105.734 65.0052 105.609 64.7188C105.49 64.4323 105.43 64.1276 105.43 63.8047V60.1953C105.43 59.8724 105.49 59.5677 105.609 59.2812C105.734 58.9948 105.904 58.7448 106.117 58.5312C106.331 58.3177 106.581 58.151 106.867 58.0312C107.154 57.9062 107.458 57.8438 107.781 57.8438H108.422C108.745 57.8438 109.049 57.9062 109.336 58.0312C109.622 58.151 109.872 58.3177 110.086 58.5312C110.299 58.7448 110.466 58.9948 110.586 59.2812C110.711 59.5677 110.773 59.8724 110.773 60.1953V60.5156L109.812 60.6719V60.1406C109.812 59.9479 109.776 59.7682 109.703 59.6016C109.63 59.4297 109.531 59.2812 109.406 59.1562C109.281 59.0312 109.133 58.9323 108.961 58.8594C108.794 58.7865 108.615 58.75 108.422 58.75H107.781C107.589 58.75 107.406 58.7865 107.234 58.8594C107.068 58.9323 106.922 59.0312 106.797 59.1562C106.672 59.2812 106.573 59.4297 106.5 59.6016C106.427 59.7682 106.391 59.9479 106.391 60.1406V63.8594C106.391 64.0521 106.427 64.2344 106.5 64.4062C106.573 64.5729 106.672 64.7188 106.797 64.8438C106.922 64.9688 107.068 65.0677 107.234 65.1406C107.406 65.2135 107.589 65.25 107.781 65.25H108.422C108.615 65.25 108.794 65.2135 108.961 65.1406C109.133 65.0677 109.281 64.9688 109.406 64.8438C109.531 64.7188 109.63 64.5729 109.703 64.4062C109.776 64.2344 109.812 64.0521 109.812 63.8594V63.3281L110.773 63.4844V63.8047Z" fill="white"/>
<line x1="138" y1="9.5" x2="137" y2="9.5" stroke="#fff"/>
<line x1="143.75" y1="31" x2="143.75" y2="51" stroke="black" stroke-width="3"/>
<line x1="137.75" y1="36" x2="137.75" y2="46" stroke="black" stroke-width="3"/>
<line x1="149.75" y1="28" x2="149.75" y2="54" stroke="black" stroke-width="3"/>
<line x1="148" y1="21.5" x2="149" y2="21.5" stroke="#fff"/>
<line x1="155.75" y1="25" x2="155.75" y2="58" stroke="black" stroke-width="3"/>
<line x1="160.75" y1="31" x2="160.75" y2="51" stroke="black" stroke-width="3"/>
<line x1="165.75" y1="36" x2="165.75" y2="46" stroke="black" stroke-width="3"/>
<line x1="170.75" y1="39" x2="170.75" y2="44" stroke="black" stroke-width="3"/>
<line x1="174.75" y1="38" x2="174.75" y2="45" stroke="black" stroke-width="3"/>
<line x1="178.75" y1="35" x2="178.75" y2="47" stroke="black" stroke-width="3"/>
<line x1="182.75" y1="39" x2="182.75" y2="44" stroke="black" stroke-width="3"/>
</svg>
