<?xml version="1.0" encoding="iso-8859-1"?>
<!-- Uploaded to: SVG Repo, www.svgrepo.com, Generator: SVG Repo Mixer Tools -->
<svg fill="#fff" height="800px" width="800px" version="1.1" id="Layer_1" xmlns="http://www.w3.org/2000/svg" xmlns:xlink="http://www.w3.org/1999/xlink" 
	 viewBox="0 0 501.333 501.333" xml:space="preserve">
<g>
	<g>
		<path d="M501.333,250.667C501.333,112,389.333,0,250.667,0S0,112,0,250.667s112,250.667,250.667,250.667
			c37.333,0,74.667-8.533,108.8-24.533c8.533,8.533,16,14.933,20.267,19.2c4.267,3.2,8.533,5.333,13.867,5.333
			c5.333,0,9.6-1.067,11.733-3.2c9.6-7.467,93.867-73.6,94.933-131.2c0-14.933-3.2-29.867-9.6-41.6
			C497.067,301.867,501.333,276.267,501.333,250.667z M250.667,459.733c-115.2,0-209.067-93.867-209.067-209.067
			S134.4,41.6,249.6,41.6s209.067,93.867,209.067,209.067c0,14.933-1.067,28.8-4.267,42.667c-6.4-2.133-12.8-3.2-19.2-3.2
			c-14.933,0-28.8,6.4-40.533,17.067c-10.667-11.733-25.6-18.133-41.6-18.133c-35.2,0-62.933,30.933-65.067,73.6
			c-1.067,24.533,19.2,55.467,40.533,82.133C304,454.4,278.4,459.733,250.667,459.733z M394.667,452.267
			c-33.067-32-65.067-71.467-64-87.467c1.067-19.2,11.733-34.133,23.467-34.133c8.533,0,17.067,8.533,21.333,21.333
			c3.2,8.533,10.667,14.933,20.267,14.933S413.867,360.533,416,352c3.2-12.8,11.733-21.333,21.333-21.333c5.333,0,9.6,3.2,12.8,6.4
			c6.4,7.467,9.6,17.067,9.6,27.733C458.667,387.2,424.533,425.6,394.667,452.267z"/>
	</g>
</g>
<g>
	<g>
		<path d="M134.4,318.933c-25.6-42.667-25.6-96,0-139.733c5.333-9.6,2.133-22.4-7.467-28.8c-9.6-5.333-22.4-2.133-28.8,7.467
			C64,214.4,64,284.8,98.133,341.333C102.4,348.8,108.8,352,116.267,352c3.2,0,6.4-1.067,10.667-4.267
			C137.6,341.333,140.8,328.534,134.4,318.933z"/>
	</g>
</g>
<g>
	<g>
		<circle cx="250.667" cy="250.667" r="40.533"/>
	</g>
</g>
</svg>